<?xml version="1.0" encoding="utf-8"?>
<!-- Generator: Adobe Illustrator 27.0.0, SVG Export Plug-In . SVG Version: 6.00 Build 0)  -->
<svg version="1.1" id="Calque_1" xmlns="http://www.w3.org/2000/svg" xmlns:xlink="http://www.w3.org/1999/xlink" x="0px" y="0px"
	 viewBox="0 0 400.1 198.7" style="enable-background:new 0 0 400.1 198.7;" xml:space="preserve">
<style type="text/css">
	.st0{display:none;fill:#5D4495;}
	.st1{display:none;fill:#7258A2;}
	.st2{display:none;fill:#FFFFFF;}
	.st3{display:none;fill:#D0BFDF;}
	.st4{display:none;fill:#271D44;}
	.st5{display:none;fill:#101022;}
	.st6{display:none;fill:#51378D;}
	.st7{display:none;fill:#4D378D;}
	.st8{fill:#271D44;}
	.st9{fill:url(#SVGID_1_);}
	.st10{fill:url(#SVGID_00000057107837084173960010000015528897072001852807_);}
	.st11{fill:url(#SVGID_00000170253247224953195830000013521525590476250777_);}
</style>
<path class="st0" d="M77.5,143.8c-0.6,0.2-0.8,0.6-1.1,0.9c-4.4,5-9.4,9.4-15,13c-6.2,4-12.9,6.6-20.2,7.8c-2.9,0.5-5.9,0.7-8.9,0.6
	c-6.6-0.3-12.9-1.8-18.8-5c-2-1.1-4-2.1-5.8-3.6c-3.9-3.3-6.3-7.5-7.3-12.5c-1.5-6.8,0-12.8,4.6-18.1c3.3-3.8,7.4-5.7,12.4-5.8
	c3.5-0.1,6.9,0.4,10,2.2c3.7,2.1,6.2,5.1,7.2,9.3c0.5,2.2,0.4,4.4-0.8,6.5c-1,1.8-2.4,3.1-4.5,3.6c-3.6,0.9-7.2-1.8-7.4-5.6
	c-0.1-2.3,0.9-3.9,2.9-4.9c0.1-0.1,0.3-0.2,0.4-0.3c0.1-0.6-0.3-1-0.7-1.3c-0.8-0.8-1.8-1.2-2.8-1.4c-2.3-0.4-4.4,0-6.4,1.3
	c-2.3,1.6-3.1,3.9-2.9,6.6c0.2,3.1,1.5,5.8,3.5,8.1c2.4,2.8,5.3,4.5,8.9,5c2.7,0.4,5.4,0.1,7.9-0.8c6.6-2.2,12-6.1,15.8-12
	c1.8-2.8,2.8-5.9,3.2-9.3c0.3-3.1,0.7-6.2,1.7-9.2c0-0.1,0-0.2,0-0.5c-0.3,0.1-0.6,0.1-0.9,0.2c-2.8,0.9-5.6,1.4-8.6,1.5
	c-12,0.5-22.6-3-32-10.4C7,105.7,3.6,100.3,2,93.7c-1-4.2-1.2-8.5,0.3-12.6c2.2-6.3,6.5-10.4,13.1-11.8c1.8-0.4,3.6-0.6,5.5-0.6
	c7.3,0.3,12.9,4.9,14.6,10.9c0.8,2.9,0.8,5.9-0.4,8.7c-1.3,2.8-3.4,4.8-6.4,5.6c-1.7,0.4-3.4,0.3-5-0.7c-2-1.2-3.1-3.8-2.5-6.1
	c0.5-1.9,2.1-3.2,4.1-3.2c0.6,0,1.2,0.1,1.7,0.1c0.2,0,0.5,0,0.8,0.1c0.4-0.7,0.4-1.3,0.2-2c-0.5-2.9-3.2-5.1-6.3-5.3
	c-2.8-0.1-5,0.9-6.7,3.2c-2.1,2.7-2.8,5.8-2.5,9.2c0.8,6.9,5.7,12.9,13.8,14.7c4.9,1,9.6,0.3,14.2-1.8c4.6-2.2,8.3-5.5,11.2-9.6
	c0.6-0.8,0.5-0.8,0-1.6c-4.4-6.1-7.1-12.9-8.6-20.3c-1.2-5.5-1.4-11.1-0.9-16.7c1.1-12.8,5.9-24,14.4-33.7C64.4,11.2,74,5.2,85.4,2
	c2.9-0.8,5.9-1.4,8.9-1.7c2.5-0.3,5-0.4,7.4-0.3c9.3,0.2,18.1,2.3,26.3,6.7c10.4,5.7,18.6,13.6,24.3,24c3.3,6,5.5,12.4,6.5,19.2
	c0.7,4.5,0.8,9,0.5,13.5c-0.6,8.4-3,16.2-7.2,23.4c-1,1.7-2.2,3.3-3.3,5c-0.3,0.4-0.4,0.7-0.1,1.2c3,4.3,6.8,7.7,11.7,9.7
	c3,1.2,6.1,1.8,9.3,1.7c5.7-0.3,10.6-2.3,14.4-6.8c2.8-3.3,4.1-7.2,3.7-11.5c-0.3-2.9-1.5-5.4-3.7-7.4c-1.9-1.6-4.1-2.3-6.6-1.8
	c-2.4,0.6-5.2,3.1-4.8,6.3c0.1,0.4,0.2,0.8,0.4,1.3c0.5-0.1,1-0.2,1.4-0.3c2.6-0.4,5.5,1.1,5.3,4.6c-0.1,2.2-1.7,4.2-3.9,4.8
	c-1.8,0.5-3.5,0.3-5.2-0.5c-3.1-1.5-4.9-4.1-5.6-7.4c-0.7-3.7,0.1-7.1,2.2-10.2c2.5-3.7,6.1-6,10.5-6.6c6.2-0.8,11.7,0.7,16.1,5.2
	c2.7,2.8,4.3,6.2,4.8,10.2c0.7,5.4-0.4,10.5-2.9,15.3c-3.1,6.1-7.8,10.8-13.7,14.2c-5.4,3.1-11.1,4.9-17.3,5.8
	c-5.4,0.7-10.8,0.7-16.2-0.7c-2.2-0.6-4.3-1.3-6.2-2.4c-0.1-0.1-0.3-0.1-0.5-0.2c-0.2,0.8,0,1.5,0.1,2.2c0.8,4.9,2.5,9.4,5,13.7
	c2.8,4.6,6.2,8.7,10.4,12c3.2,2.5,6.7,4.2,10.7,5.1c7.5,1.6,13.6-1.4,17.1-7.6c1.1-2,1.6-4.3,1.3-6.6c-0.4-3.1-2.8-5.5-5.9-5.9
	c-2.1-0.3-4.1,0.2-5.8,1.4c-0.5,0.4-1,0.8-1.3,1.5c0.3,0.1,0.5,0.3,0.8,0.4c3,1.1,3.8,4.6,2,7.1c-1.3,1.8-3.1,2.9-5.3,2.9
	c-2.8-0.1-5.3-1.9-6.2-4.6c-0.9-2.8-0.7-5.6,0.6-8.3c2-4,5.2-6.7,9.3-8.2c5.2-1.9,10.2-1.3,14.9,1.4c5.4,3.1,8.7,7.9,9.9,14
	c0.9,5,0.1,9.8-2.2,14.3c-2.5,4.9-6.3,8.2-11.2,10.6c-4.3,2.1-8.7,3.4-13.4,4c-3.7,0.5-7.4,0.4-11-0.1c-9.4-1.2-17.7-4.9-25.3-10.3
	c-6.9-4.9-12.9-10.5-18.3-17c-2.2-2.7-4.1-5.6-6.1-8.4c-0.2-0.2-0.3-0.5-0.5-0.8c-0.2,0.1-0.4,0.2-0.5,0.4c-3.1,3.4-6.1,7-8.3,11.1
	c-2.1,3.9-3.2,8.1-3.1,12.5c0.1,4.5,1.4,8.7,4.5,12.1c3.3,3.7,7.6,5.3,12.5,4.9c5.5-0.5,10.1-5.4,9.5-11.4c-0.3-3.1-2.6-5.8-5.6-6.4
	c-1.1-0.2-2.1-0.1-3,0.5c-0.7,0.4-1.1,1-1.4,1.7c-0.4,1.1-0.3,1.4,0.8,1.9c2.2,1.1,2.8,3.5,1.2,5.4c-1.3,1.6-3.5,2.1-5.6,1.1
	c-2.5-1.1-4-4-3.7-6.8c0.4-3.5,3.2-7.4,8.1-8.7c4.3-1.1,8.1-0.1,11.3,3c3.8,3.6,5.4,8.1,4.8,13.3c-0.6,5.4-2.9,9.9-7.1,13.4
	c-2.8,2.3-6,3.5-9.5,4.1c-6.1,0.9-11.7-0.6-17.1-3.3c-11.2-5.6-18-14.6-20.8-26.6c-0.5-2.1-0.7-4.3-1-6.5
	C77.6,144.3,77.6,144,77.5,143.8L77.5,143.8z M42.3,59.7c0.5-0.2,0.8-0.3,1.1-0.5c6.6-3.3,13.1-6.7,19.7-10c5.5-2.8,11-5.5,16.6-8.3
	c7-3.5,14-6.9,20.9-10.4c6-3,12-6,17.9-9.1c2.3-1.2,4.6-2.5,6.9-3.8c1.3-0.8,2.5-1.7,3.4-3c1.2-1.9,1-3.4-0.5-5
	c-1.5-1.6-3.4-2.6-5.4-3.5c-5.6-2.5-11.5-3.8-17.7-4.2c-2.3-0.1-4.7-0.3-7.1-0.1c-2.2,0.3-4.5,0.3-6.7,0.7
	C82.6,4.2,74.4,7.6,67,12.9c-5.3,3.7-9.8,8.2-13.6,13.4c-2.7,3.7-4.9,7.6-6.7,11.8c-1.3,3-2.4,6.1-3.1,9.4c-0.6,3-1,5.9-1.2,8.9
	C42.2,57.5,42.3,58.5,42.3,59.7L42.3,59.7z M57,68.2c0,8.2,6.7,15.1,14.6,15.1c8.7,0,15.2-6.9,15.1-14.8c0-9-7.2-15.1-14.9-15.1
	C63.1,53.4,56.9,60.7,57,68.2L57,68.2z M129.7,83.1c8.1,0.1,14.9-6.6,14.9-14.9c0-8.6-6.9-14.7-14.9-14.7c-7.3,0-14.6,6-14.6,14.8
	C115.2,77.3,122.5,83.3,129.7,83.1L129.7,83.1z M3.4,86.5c0,0.3,0.1,0.8,0.2,1.3c0.1,0.4,0.3,0.7,0.7,0.7c0.5,0.1,0.7-0.3,0.9-0.7
	c0.1-0.2,0.2-0.5,0.2-0.8c0.2-0.9,0.3-1.9,0.6-2.8c0.8-3.1,2.1-5.8,4.4-8.1c1.4-1.3,2.9-2.4,4.7-3.1c0.5-0.2,1-0.5,1.4-0.8
	c0.2-0.2,0.3-0.6,0.2-0.9C16.6,71.2,16.2,71,16,71c-0.5,0-1.1,0.1-1.6,0.3C6.8,73.8,3.9,80.4,3.4,86.5L3.4,86.5z M119.1,21.9
	c-1.2,0-2.1,0.9-2.1,2.1c0,1.3,1,2.4,2.2,2.4c1.2,0,2.1-1,2.1-2.2C121.3,22.9,120.3,21.9,119.1,21.9z"/>
<path class="st1" d="M42.3,59.7c0-1.2-0.1-2.2,0-3.2c0.2-3,0.5-6,1.2-8.9c0.7-3.2,1.8-6.3,3.1-9.4c1.9-4.1,4-8.1,6.7-11.8
	c3.8-5.2,8.3-9.7,13.6-13.4c7.4-5.3,15.6-8.7,24.6-10.4c2.2-0.4,4.4-0.4,6.7-0.7c2.4-0.3,4.7-0.1,7.1,0.1c6.1,0.4,12,1.7,17.7,4.2
	c2,0.9,3.9,1.9,5.4,3.5c1.5,1.6,1.7,3.1,0.5,5c-0.9,1.3-2,2.3-3.4,3c-2.3,1.3-4.6,2.6-6.9,3.8c-6,3-11.9,6.1-17.9,9
	c-7,3.5-14,6.9-20.9,10.4c-5.5,2.8-11.1,5.5-16.6,8.3c-6.6,3.3-13.2,6.7-19.7,10C43.1,59.3,42.8,59.4,42.3,59.7L42.3,59.7z
	 M89.4,17.2L89.4,17.2c-0.2-0.1-0.4-0.4-0.7-0.5c-1.5-0.6-3.9-0.4-5.3,1c-1.7,1.6-2.1,4.4-0.9,6.4c1.3,2.1,3.5,3.1,6,2.5
	c1.9-0.4,2.9-1.9,3.4-3.6c0.6-2,0-3.8-1.4-5.2C90.2,17.5,89.8,17.4,89.4,17.2z"/>
<path class="st2" d="M57,68.2c0-7.5,6.2-14.8,14.9-14.8c7.7,0,14.9,6.1,14.9,15.1c0,7.8-6.4,14.8-15.1,14.8
	C63.6,83.2,56.9,76.4,57,68.2L57,68.2z M63.8,69.4c0,5.2,4.2,9.6,9.4,9.7c5.8,0.1,10.1-4.9,10.2-9.9c0.1-5.2-4.3-9.8-9.4-9.8
	C68.6,59.3,63.9,64,63.8,69.4z"/>
<path class="st2" d="M129.7,83.1c-7.3,0.2-14.6-5.8-14.6-14.9c0-8.8,7.3-14.8,14.6-14.8c7.9,0,14.8,6.2,14.9,14.7
	C144.7,76.6,137.8,83.2,129.7,83.1L129.7,83.1z M118.5,69.3c0,0.4,0.1,0.8,0.1,1.2c0.6,4.8,5,8.7,9.8,8.6c5.9-0.2,9.3-5.4,9.4-9.5
	c0.1-4.4-3.2-8.8-7.5-9.9c-3.8-1-7.1,0-9.7,3.1C119.1,64.7,118.5,66.9,118.5,69.3L118.5,69.3z"/>
<path class="st3" d="M3.4,86.5c0.5-6,3.4-12.7,10.9-15.2c0.5-0.2,1.1-0.2,1.6-0.3c0.2,0,0.6,0.2,0.7,0.4c0.1,0.2,0,0.7-0.2,0.9
	c-0.4,0.3-0.9,0.6-1.4,0.8c-1.8,0.7-3.3,1.8-4.7,3.1c-2.3,2.2-3.6,5-4.4,8.1c-0.2,0.9-0.4,1.9-0.6,2.8c-0.1,0.2-0.1,0.5-0.2,0.8
	c-0.2,0.4-0.4,0.7-0.9,0.7c-0.4,0-0.6-0.3-0.7-0.7C3.5,87.3,3.5,86.8,3.4,86.5L3.4,86.5z"/>
<path class="st3" d="M119.1,21.9c1.2,0,2.2,1,2.2,2.2c0,1.2-1,2.2-2.1,2.2c-1.2,0-2.2-1-2.2-2.4C117,22.8,117.9,21.9,119.1,21.9z"/>
<path class="st4" d="M63.8,69.4c0-5.4,4.8-10.1,10.2-10c5.1,0,9.5,4.6,9.4,9.8c-0.1,5-4.3,10-10.2,9.9
	C68.1,79.1,63.8,74.6,63.8,69.4z M75.7,64.6c0-1.7-1.2-2.8-3-2.8c-1.6,0-2.6,1.1-2.6,2.6c0,1.6,1.2,2.9,2.9,2.8
	C74.6,67.3,75.8,66.2,75.7,64.6L75.7,64.6z"/>
<path class="st4" d="M118.5,69.3c0-2.4,0.7-4.6,2.2-6.5c2.5-3.1,5.8-4.1,9.7-3.1c4.3,1.1,7.5,5.4,7.5,9.9c-0.1,4.1-3.5,9.3-9.4,9.5
	c-4.8,0.1-9.3-3.8-9.8-8.6C118.5,70.1,118.5,69.7,118.5,69.3L118.5,69.3z M128.5,61.8c-1.6,0-2.6,1.1-2.6,2.7c0,1.6,1.2,2.8,2.7,2.8
	c1.6,0,2.8-1.3,2.8-2.9C131.4,62.9,130.2,61.8,128.5,61.8z"/>
<path class="st3" d="M89.6,16.8c0.4,0.4,0.9,0.8,1.3,1.2c2.4,2.9,1.3,6.5-1.2,8.2c-2.7,1.7-7.1,0.3-7.9-3.6
	c-0.7-3.2,1.5-6.1,4.8-6.4C87.7,16,88.7,16.4,89.6,16.8L89.6,16.8L89.6,16.8z"/>
<path class="st2" d="M75.7,64.6c0,1.6-1.1,2.7-2.7,2.7c-1.7,0-2.9-1.2-2.9-2.8c0-1.6,1-2.6,2.6-2.6C74.5,61.8,75.7,63,75.7,64.6
	L75.7,64.6z"/>
<path class="st2" d="M128.5,61.8c1.7,0,2.9,1.1,2.9,2.7c0,1.6-1.2,2.8-2.8,2.9c-1.5,0-2.7-1.2-2.8-2.8
	C125.9,62.9,126.9,61.8,128.5,61.8z"/>
<path class="st5" d="M111.4,85.6c0.1-0.1,0.1-0.1,0.2-0.2c0.1-0.1,0.1-0.1,0.2-0.2c0.2-0.1,0.4-0.1,0.7-0.2c1-0.2,1.7,0.3,1.8,1.3
	c0.1,0.9-0.1,1.7-0.6,2.4c-1.5,2.5-3.7,4.2-6.3,5.2c-4.8,1.8-9.6,1.6-14.2-0.7c-2.1-1.1-3.8-2.7-5-4.7c-0.3-0.6-0.6-1.2-0.5-1.8
	c0-0.7,0.5-1.3,1.2-1.5c0.7-0.2,1.2,0,1.6,0.7c0.5,0.7,0.9,1.5,1.5,2.2c1.8,2,4.2,3.1,6.8,3.5c2,0.3,4,0.2,5.9-0.3
	c2.2-0.7,4.2-1.8,5.5-3.7C110.8,86.9,111.1,86.3,111.4,85.6L111.4,85.6z"/>
<path class="st6" d="M4.2,147.5c0.5,0.9,1,1.7,1.6,2.6c0.6,1.1,1.4,2,2.3,2.9c0.9,0.9,1.9,1.8,3,2.6c3.4,2.5,7.3,4.1,11.3,5.1
	c1.6,0.4,3.3,0.7,5,0.9c2.1,0.3,4.1,0.2,6.2,0.1c2-0.1,4-0.4,5.9-0.8c3.1-0.7,6.1-1.7,9-3c3.5-1.6,6.6-3.6,9.6-5.9
	c1.7-1.3,3.2-2.6,4.7-4.1c0.2-0.2,0.4-0.4,0.6-0.7c1-0.8,1.8-1.8,2.6-2.7c0.9-1.1,1.8-2.2,2.7-3.3c1.5-1.8,2.8-3.8,4.1-5.7
	c2.7-3.9,4.8-8.2,6.9-12.4c1.8-3.7,3.2-7.4,4.6-11.3c0.9-2.6,1.6-5.2,2.2-7.9c0-0.2,0-0.4,0-0.6c0.1,0.1,0.2,0.1,0.4,0.2
	c0,1.1,0.1,2.1,0,3.2c-0.1,1.1-0.2,2.1-0.3,3.2c-0.1,1.2-0.3,2.4-0.4,3.5c-0.2,1.5-0.4,3-0.7,4.5c-0.2,1.6-0.5,3.1-0.7,4.7
	c-0.2,1.3-0.4,2.6-0.6,3.9c-0.1,0.8-0.1,1.5-0.2,2.3c-0.1,1.1-0.3,2.2-0.3,3.4c0.1,0.8,0,1.7-0.2,2.5c0,2.7-0.1,5.4,0,8.1
	c0,1.2,0.2,2.4,0.3,3.6c0.2,1.4,0.4,2.9,0.6,4.3c0.4,2.6,1.1,5.2,2,7.6c0.9,2.5,2.1,4.9,3.6,7.1c0.1,0.2,0.2,0.3,0.4,0.4
	c0,0.2,0.1,0.4,0.2,0.5c1.7,2.6,4,4.7,6.4,6.7c0.6,0.5,1.3,0.8,1.7,1.4c-0.2,0.3-0.5,0.1-0.7-0.1c-1.5-0.9-3.1-1.6-4.5-2.6
	c-1-0.7-2-1.3-3-2c-0.2-0.1-0.3-0.3-0.5-0.1c0,0.1,0,0.2,0.1,0.2c0.8,0.9,1.6,1.7,2.3,2.6c0.2,0.2,0.3,0.3,0.5,0.5
	c0.2,0.3-0.1,0.4-0.3,0.4c-1.5-1.1-2.9-2.4-4.2-3.8c-5.6-6.1-8.8-13.3-10.1-21.4c-0.2-1.3-0.3-2.6-0.5-4c-0.4,0-0.5,0.3-0.7,0.5
	c-3.8,4.4-8,8.3-12.7,11.6c-4.6,3.3-9.6,5.9-15,7.6c-0.2,0.1-0.4,0.1-0.6,0.1c-0.2,0-0.5-0.1-0.6,0.2h0c-0.2,0-0.4,0-0.6,0.2h0
	c-0.3,0-0.5-0.1-0.7,0.2h0c-0.2,0-0.4,0-0.6,0.2h0c-0.2,0-0.5-0.1-0.7,0.2h0c-0.3,0.1-0.7-0.1-0.9,0.2l0,0c-0.4,0-0.8,0-1.2,0.1
	c-1.9,0.4-3.9,0.8-5.9,0.8c-2,0.1-4.1,0-6.1,0c-0.3,0-0.7,0.1-0.9-0.2c0.2-0.2,0.6-0.5,0-0.6c-0.2-0.1-0.4-0.1-0.6-0.2
	c-1.1-0.3-2.2-0.2-3.3-0.5c-2-0.6-3.9-1.2-5.9-1.9c-0.5-0.1-0.9-0.3-1.4-0.5c-2.5-1.2-4.9-2.4-7.1-4.2c-2.2-1.7-4.1-3.7-5.9-5.8
	c-0.4-0.5-0.8-1.2-1.2-1.8c-0.6-0.8-0.9-1.7-1.3-2.6C4,147.6,4.1,147.5,4.2,147.5L4.2,147.5z"/>
<path class="st6" d="M174.6,112.7c0.9-0.1,1.8-0.5,2.6-0.9c3.3-1.3,6.4-3.1,9.2-5.3c2.6-2,4.9-4.3,6.6-7.1c1.7-2.7,2.9-5.7,3.3-8.9
	c0.1-0.6,0.2-1.3,0.2-1.9c0.3,0,0.4,0.3,0.4,0.6c0,0.9-0.1,1.7-0.2,2.6c-0.2,1.5-0.5,3-0.8,4.5c-0.2,0.9-0.6,1.8-0.9,2.8
	c-0.1,0.3-0.2,0.7,0.1,1c0.4-0.8,0.9-1.4,1.1-2.2c0.1-0.3,0.2-0.7,0.7-0.7c-0.8,2.2-1.9,4.3-3.3,6.2c-4,5.6-9.2,9.7-15.5,12.4
	c-5.4,2.4-11.1,3.8-17,4.1c-4.7,0.3-9.3-0.1-13.8-1.4c-1.9-0.6-3.7-1.2-5.3-2.3c-0.1-0.2-0.2-0.2-0.4-0.2c0-2.8,0.5-5.5,1.8-8
	c0.1-0.3,0.2-0.7,0.7-0.8c0.1,0.4-0.1,0.7-0.2,1c-0.2,0.6-0.1,1,0.4,1.4c1.8,1.4,3.7,2.5,5.8,3.3c2.4,0.9,4.8,1.4,7.3,1.7
	c2.2,0.3,4.4,0.3,6.7,0.2c2.5-0.2,5-0.6,7.4-1.2C172.6,113.3,173.7,113.2,174.6,112.7L174.6,112.7z"/>
<path class="st6" d="M53.8,118.5c-0.4,0-0.8,0-1.2,0.2c-2,0.6-4,1-6,1.2c-2.6,0.3-5.2,0.1-7.7,0.2c-0.7,0-1.4-0.2-2.1-0.4
	c-2.9-0.5-5.7-1.4-8.4-2.3c-2.8-1-5.5-2.3-8.1-3.8c-1.6-1-3.3-1.9-4.9-3c-1.4-0.9-2.8-1.9-3.9-3.1c-1.2-1.2-2.5-2.3-3.5-3.7
	c-0.4-0.6-0.8-1.2-0.8-1.9c0.7,0.8,1.4,1.7,2.1,2.5c0.2,0.3,0.4,0.6,0.7,0.8c1.7,1.4,3.3,2.9,5.2,4.1c4.3,2.7,8.9,4.6,13.8,5.6
	c1.8,0.4,3.6,0.6,5.4,0.8c1.1,0.1,2.2,0.2,3.4,0.1c2.9-0.1,5.8-0.5,8.7-1.3c3.6-1,7-2.5,10.2-4.4c1.1-0.7,2-1.5,3.1-2.2
	c0.2-0.1,0.3-0.3,0.5-0.2c0.2,0.2,0,0.3-0.1,0.4c-2.3,2.9-4.2,6.1-5.6,9.6C54.2,118,54.3,118.4,53.8,118.5z"/>
<path class="st7" d="M169.7,161.3c1.7,0.1,3.4,0,5.1-0.2c3.2-0.4,6.4-1.1,9.4-2.4c2.5-1.1,4.8-2.5,6.9-4.2c0.2-0.1,0.3-0.3,0.6-0.3
	c0.2,0,0.4,0.1,0.3,0.4c-0.8,1.2-1.6,2.4-2.8,3.3c-2,1.6-4.2,2.8-6.6,3.9c-2.2,0.9-4.5,1.8-6.9,2.2c-0.8,0.1-1.6,0.1-2.4,0.2
	c-1,0.2-2,0.4-3,0.3c-2-0.1-3.9,0.1-5.9-0.2c-1.6-0.2-3.2-0.5-4.9-0.7c-1.4-0.2-2.8-0.7-4.2-1.1c-2.9-0.7-5.7-1.6-8.4-3
	c-2.1-1.1-4.3-2.1-6.2-3.5c-1.5-1.1-3.2-2-4.7-3.2c-0.2-0.2-0.5-0.4-0.8-0.6c-1.8-1-3.3-2.3-4.7-3.7c-2-1.9-4.1-3.8-5.9-5.8
	c-1.6-1.8-3.4-3.4-4.9-5.3c-1.1-1.4-2.3-2.7-3.4-4.2c-0.4-0.7-1-1.2-1.6-1.8c-0.1-0.1-0.2-0.2-0.5-0.1c0.1,0.6,0.3,1.1,0.7,1.6
	c0.9,1.2,1.6,2.4,2.5,3.6c1,1.2,1.8,2.6,3,3.7c0.3,0.3,0.6,0.7,0.5,1.2c-1.4-1.4-2.7-2.9-3.9-4.4c-2-2.6-3.9-5.2-5.5-7.9
	c-0.5,0.2-0.7,0.7-1.1,0.9c-0.1-0.1-0.2-0.2-0.1-0.3c0.1-0.2,0.2-0.3,0.4-0.4c1.6-1,2.1-2.8,2.8-4.3c0.8-1.7,1.1-3.5,1.3-5.3
	c0.2-1.8,0-3.4-0.2-5.2c-0.1-1-0.4-1.9-0.5-3c0.3,0.4,0.4,0.7,0.5,1c0.7,2.6,1.8,5.1,2.9,7.5c2.2,4.8,4.7,9.4,7.8,13.7
	c1.6,2.3,3.3,4.6,5.2,6.7c1.4,1.6,2.9,3.2,4.4,4.8c0.3,0.3,0.6,0.6,1.1,0.8l0,0c0.2,0.3,0.4,0.6,0.8,0.8c0.5,0.8,1.3,1.2,1.9,1.7
	c0.1,0.2,0.2,0.3,0.4,0.4c0.1,0.1,0.3,0.1,0.4,0.2c0.2,0.2,0.3,0.4,0.5,0.6c2.6,2,5.4,4,8.3,5.6c3.8,2.1,7.7,3.7,11.9,4.8
	c1.7,0.4,3.4,0.8,5.1,1C166.8,161.2,168.2,161.1,169.7,161.3L169.7,161.3z"/>
<path class="st8" d="M228.7,103.6c-3,0-5.6-0.6-7.9-1.9s-3.9-3.1-5.1-5.5s-1.8-5.3-1.8-8.6v0c0-3.3,0.6-6.2,1.8-8.6s2.9-4.2,5.1-5.5
	c2.2-1.3,4.8-1.9,7.9-1.9c2.5,0,4.7,0.5,6.7,1.5c2,1,3.5,2.3,4.7,4c1.2,1.7,1.9,3.7,2.1,5.8l0,0.2h-6.3l-0.1-0.4
	c-0.2-1.2-0.7-2.1-1.3-3c-0.6-0.8-1.4-1.5-2.4-2c-1-0.5-2.1-0.7-3.4-0.7c-1.7,0-3.1,0.4-4.3,1.3s-2.2,2.1-2.8,3.6
	c-0.7,1.6-1,3.4-1,5.6v0c0,2.2,0.3,4.1,1,5.6s1.6,2.8,2.8,3.7c1.2,0.8,2.7,1.3,4.3,1.3c1.2,0,2.4-0.2,3.3-0.7s1.8-1.1,2.4-2
	c0.7-0.9,1.1-1.9,1.4-3.2l0-0.2h6.3l0,0.2c-0.2,2.2-0.9,4.1-2.1,5.8c-1.2,1.7-2.8,3-4.7,4S231.2,103.5,228.7,103.6L228.7,103.6z"/>
<path class="st8" d="M246.2,103V72h6.5v31H246.2z"/>
<path class="st8" d="M269.2,103.6c-2.5,0-4.6-0.4-6.4-1.1c-1.8-0.7-3.3-1.8-4.3-3.1s-1.6-3-1.8-4.9l0-0.3h6.1l0,0.2
	c0.1,0.8,0.5,1.5,1.1,2.1s1.3,1,2.3,1.3c0.9,0.3,2,0.5,3.2,0.5s2.2-0.2,3.1-0.5c0.9-0.3,1.5-0.8,2-1.4c0.5-0.6,0.7-1.3,0.7-2.1v0
	c0-1.1-0.4-1.9-1.2-2.5c-0.8-0.6-2.2-1.1-4.1-1.5l-3.3-0.7c-3-0.6-5.4-1.6-6.9-3.1c-1.5-1.5-2.3-3.4-2.3-5.7v0
	c0-1.9,0.5-3.5,1.5-4.9s2.4-2.5,4.2-3.3s3.8-1.2,6.1-1.2s4.5,0.4,6.2,1.1s3.1,1.8,4.1,3.2c1,1.3,1.5,2.9,1.6,4.8l0,0.4h-6.1l0-0.3
	c-0.1-0.8-0.4-1.5-0.9-2.1c-0.5-0.6-1.2-1-2-1.3c-0.8-0.3-1.8-0.5-2.8-0.5s-2.1,0.2-2.9,0.5c-0.8,0.3-1.4,0.8-1.8,1.3
	c-0.4,0.6-0.6,1.2-0.6,1.9v0c0,1,0.4,1.8,1.2,2.4c0.8,0.6,2.1,1.1,3.9,1.4l3.3,0.7c2.2,0.4,3.9,1,5.3,1.8c1.4,0.8,2.4,1.7,3.1,2.9
	c0.7,1.2,1,2.5,1,4.2v0c0,2-0.5,3.7-1.5,5.2c-1,1.4-2.4,2.6-4.3,3.4S271.8,103.6,269.2,103.6L269.2,103.6z"/>
<path class="st8" d="M299.6,103.6c-3.1,0-5.7-0.7-8-1.9c-2.2-1.3-4-3.1-5.2-5.5s-1.8-5.2-1.8-8.5v0c0-3.3,0.6-6.1,1.8-8.5
	c1.2-2.4,3-4.2,5.2-5.5c2.2-1.3,4.9-1.9,7.9-1.9s5.7,0.7,8,2c2.2,1.3,4,3.2,5.2,5.5s1.8,5.2,1.8,8.5v0c0,3.3-0.6,6.1-1.8,8.5
	s-2.9,4.2-5.2,5.5S302.7,103.6,299.6,103.6L299.6,103.6z M299.6,98.1c1.7,0,3.2-0.4,4.4-1.3s2.2-2.1,2.9-3.7c0.7-1.6,1-3.4,1-5.6v0
	c0-2.2-0.3-4-1-5.6s-1.6-2.8-2.9-3.6s-2.7-1.3-4.4-1.3s-3.2,0.4-4.4,1.3c-1.2,0.8-2.2,2.1-2.9,3.6s-1,3.4-1,5.6v0c0,2.2,0.3,4,1,5.6
	s1.6,2.8,2.9,3.7S297.9,98.1,299.6,98.1L299.6,98.1z"/>
<path class="st8" d="M212.9,155.8l10.8-31h5.7v6h-2l-7.8,25L212.9,155.8L212.9,155.8z M218.7,148.3l1.6-4.9h14.5l1.6,4.9H218.7z
	 M235.3,155.8l-7.7-25v-6h3.8l10.8,31L235.3,155.8L235.3,155.8z"/>
<path class="st8" d="M254.1,156.3c-2.1,0-3.9-0.3-5.4-0.9c-1.5-0.6-2.7-1.5-3.5-2.6s-1.3-2.4-1.5-3.8l0-0.2h6.1l0,0.2
	c0.2,0.9,0.6,1.6,1.4,2.1c0.7,0.5,1.7,0.8,2.9,0.8c0.8,0,1.5-0.1,2-0.3s1-0.5,1.3-0.8s0.5-0.8,0.5-1.3v0c0-0.6-0.2-1.1-0.7-1.5
	c-0.4-0.4-1.2-0.7-2.4-0.9l-3.9-0.8c-1.5-0.3-2.7-0.8-3.7-1.4s-1.8-1.3-2.3-2.2c-0.5-0.9-0.8-1.9-0.8-3v0c0-1.5,0.4-2.8,1.2-3.8
	s1.9-1.9,3.4-2.5s3.1-0.9,5.1-0.9s3.8,0.3,5.2,1c1.4,0.6,2.5,1.5,3.3,2.6c0.8,1.1,1.2,2.3,1.2,3.7v0.2h-5.8l0-0.2
	c-0.1-0.8-0.5-1.5-1.1-2.1c-0.7-0.6-1.6-0.8-2.7-0.8c-0.7,0-1.3,0.1-1.9,0.3s-0.9,0.5-1.2,0.8c-0.3,0.4-0.4,0.8-0.4,1.3v0
	c0,0.4,0.1,0.7,0.3,1c0.2,0.3,0.5,0.6,1,0.8c0.5,0.2,1.1,0.4,1.9,0.6l3.9,0.8c2.4,0.5,4.2,1.2,5.2,2.3c1,1,1.6,2.4,1.6,4v0
	c0,1.5-0.4,2.8-1.3,3.9s-2,2-3.6,2.6C257.8,156,256,156.3,254.1,156.3L254.1,156.3z"/>
<path class="st8" d="M276.7,156.3c-2.1,0-3.9-0.3-5.4-0.9c-1.5-0.6-2.7-1.5-3.5-2.6s-1.3-2.4-1.5-3.8l0-0.2h6.1l0,0.2
	c0.2,0.9,0.6,1.6,1.4,2.1c0.7,0.5,1.7,0.8,2.9,0.8c0.8,0,1.5-0.1,2-0.3s1-0.5,1.3-0.8s0.5-0.8,0.5-1.3v0c0-0.6-0.2-1.1-0.7-1.5
	c-0.4-0.4-1.2-0.7-2.4-0.9l-3.9-0.8c-1.5-0.3-2.7-0.8-3.7-1.4s-1.8-1.3-2.3-2.2c-0.5-0.9-0.8-1.9-0.8-3v0c0-1.5,0.4-2.8,1.2-3.8
	s1.9-1.9,3.4-2.5c1.5-0.6,3.1-0.9,5.1-0.9s3.8,0.3,5.2,1c1.4,0.6,2.5,1.5,3.3,2.6c0.8,1.1,1.2,2.3,1.2,3.7v0.2h-5.8l0-0.2
	c-0.1-0.8-0.5-1.5-1.1-2.1c-0.7-0.6-1.6-0.8-2.7-0.8c-0.7,0-1.3,0.1-1.9,0.3s-0.9,0.5-1.2,0.8c-0.3,0.4-0.4,0.8-0.4,1.3v0
	c0,0.4,0.1,0.7,0.3,1s0.5,0.6,1,0.8c0.5,0.2,1.1,0.4,1.9,0.6l3.9,0.8c2.4,0.5,4.2,1.2,5.2,2.3c1,1,1.6,2.4,1.6,4v0
	c0,1.5-0.4,2.8-1.3,3.9s-2,2-3.6,2.6C280.4,156,278.7,156.3,276.7,156.3L276.7,156.3z"/>
<path class="st8" d="M293.1,129.8c-1,0-1.7-0.3-2.4-1c-0.6-0.6-1-1.4-1-2.3s0.3-1.7,1-2.3c0.6-0.6,1.5-1,2.4-1s1.7,0.3,2.4,1
	s1,1.4,1,2.3s-0.3,1.7-1,2.3C294.9,129.5,294.1,129.8,293.1,129.8z M290,155.8v-23h6.3v23H290z"/>
<path class="st8" d="M309.9,156.3c-2.1,0-3.9-0.3-5.4-0.9c-1.5-0.6-2.7-1.5-3.5-2.6s-1.3-2.4-1.5-3.8l0-0.2h6.1l0,0.2
	c0.2,0.9,0.6,1.6,1.4,2.1c0.7,0.5,1.7,0.8,2.9,0.8c0.8,0,1.5-0.1,2-0.3s1-0.5,1.3-0.8s0.5-0.8,0.5-1.3v0c0-0.6-0.2-1.1-0.7-1.5
	c-0.4-0.4-1.2-0.7-2.4-0.9l-3.9-0.8c-1.5-0.3-2.7-0.8-3.7-1.4s-1.8-1.3-2.3-2.2c-0.5-0.9-0.8-1.9-0.8-3v0c0-1.5,0.4-2.8,1.2-3.8
	s1.9-1.9,3.4-2.5c1.5-0.6,3.1-0.9,5.1-0.9s3.8,0.3,5.2,1c1.4,0.6,2.5,1.5,3.3,2.6c0.8,1.1,1.2,2.3,1.2,3.7v0.2h-5.8l0-0.2
	c-0.1-0.8-0.5-1.5-1.1-2.1c-0.7-0.6-1.6-0.8-2.7-0.8c-0.7,0-1.3,0.1-1.9,0.3s-0.9,0.5-1.2,0.8c-0.3,0.4-0.4,0.8-0.4,1.3v0
	c0,0.4,0.1,0.7,0.3,1s0.5,0.6,1,0.8c0.5,0.2,1.1,0.4,1.9,0.6l3.9,0.8c2.4,0.5,4.2,1.2,5.2,2.3c1,1,1.6,2.4,1.6,4v0
	c0,1.5-0.4,2.8-1.3,3.9s-2,2-3.6,2.6C313.7,156,311.9,156.3,309.9,156.3L309.9,156.3z"/>
<path class="st8" d="M332.3,156.3c-2.5,0-4.4-0.5-5.7-1.6s-1.9-2.8-1.9-5.3v-11.9h-3.2v-4.7h3.2v-5.6h6.3v5.6h4.2v4.7h-4.2v11.2
	c0,1.1,0.2,1.8,0.7,2.2c0.5,0.4,1.2,0.6,2.1,0.6c0.3,0,0.5,0,0.8,0s0.4-0.1,0.6-0.1v4.6c-0.3,0.1-0.8,0.1-1.3,0.2
	S332.9,156.3,332.3,156.3L332.3,156.3z"/>
<path class="st8" d="M345.4,156.2c-1.5,0-2.9-0.3-4-0.9c-1.2-0.6-2.1-1.4-2.7-2.5c-0.6-1.1-1-2.2-1-3.6v0c0-1.4,0.4-2.6,1-3.6
	c0.7-1,1.7-1.8,3.1-2.4s3-0.9,4.9-1.1l9-0.6v3.9l-8,0.5c-1.2,0.1-2.1,0.4-2.8,0.8c-0.6,0.5-1,1.1-1,2v0c0,0.9,0.3,1.5,1,2
	c0.6,0.5,1.5,0.7,2.6,0.7c0.9,0,1.8-0.2,2.5-0.6c0.7-0.4,1.3-0.9,1.7-1.5c0.4-0.6,0.6-1.4,0.6-2.1v-7c0-1-0.3-1.8-1-2.4
	c-0.6-0.6-1.6-0.9-2.8-0.9s-2.1,0.2-2.8,0.7c-0.7,0.5-1.1,1.1-1.3,1.8l0,0.2h-5.8l0-0.3c0.1-1.4,0.6-2.7,1.4-3.8
	c0.8-1.1,2-2,3.4-2.6s3.2-0.9,5.2-0.9s3.7,0.3,5.2,1s2.6,1.5,3.4,2.7s1.2,2.5,1.2,4.1v15.8h-6.3v-3.4h-0.1c-0.4,0.8-1,1.4-1.7,2
	c-0.7,0.6-1.4,1-2.3,1.3S346.4,156.2,345.4,156.2L345.4,156.2z"/>
<path class="st8" d="M362.6,155.8v-23h6.3v3.8h0.1c0.6-1.3,1.5-2.4,2.7-3.1s2.6-1.1,4.4-1.1c2.5,0,4.5,0.8,5.9,2.3
	c1.4,1.5,2.1,3.6,2.1,6.4v14.9h-6.3v-13.6c0-1.5-0.4-2.7-1.1-3.5s-1.8-1.2-3.2-1.2c-0.9,0-1.7,0.2-2.4,0.6s-1.2,1-1.6,1.8
	s-0.6,1.6-0.6,2.6v13.2L362.6,155.8L362.6,155.8z"/>
<path class="st8" d="M397.1,156.3c-2.5,0-4.4-0.5-5.7-1.6s-1.9-2.8-1.9-5.3v-11.9h-3.2v-4.7h3.2v-5.6h6.3v5.6h4.2v4.7h-4.2v11.2
	c0,1.1,0.2,1.8,0.7,2.2c0.5,0.4,1.2,0.6,2.1,0.6c0.3,0,0.5,0,0.8,0s0.4-0.1,0.6-0.1v4.6c-0.3,0.1-0.8,0.1-1.3,0.2
	S397.8,156.3,397.1,156.3L397.1,156.3z"/>
<g>
	<linearGradient id="SVGID_1_" gradientUnits="userSpaceOnUse" x1="4.4069" y1="99.3667" x2="197.6616" y2="99.3667">
		<stop  offset="5.778895e-02" style="stop-color:#2D57D9"/>
		<stop  offset="1" style="stop-color:#8384D3"/>
	</linearGradient>
	<path class="st9" d="M167.9,52.3c-1.2-1.6-2.3-3.1-3.5-4.5c-12.8-15.5-29-25.3-48.8-28.9c-15.1-2.8-29.8-1.4-44.1,4.2
		c-14.1,5.5-25.8,14.3-35.1,26.2c-7.9,10.1-13.1,21.5-15.6,34.2c-3.1,16-1.7,31.5,4.4,46.6c6.1,15,15.9,27.1,29.2,36.4
		c10.2,7.2,21.5,11.8,33.9,13.6c20,3,38.7-0.7,55.9-11.4c14.4-9,25-21.3,31.8-36.9c4.6-10.4,6.7-21.3,6.8-32.6c0-16.8,0-33.6,0-50.4
		c0-0.2,0-0.4,0-0.6c0.1,0,0.1,0,0.2-0.1c0.6,1,1.2,1.9,1.7,2.9c6.5,11.2,10.6,23.3,12.2,36.2c1.2,9.5,1,19.1-0.7,28.5
		c-2.2,12.8-6.8,24.6-13.8,35.5c-7.5,11.7-17,21.3-28.6,28.9c-10.9,7.2-22.9,11.9-35.7,14.2c-11.2,2-22.4,2.1-33.6,0.1
		c-19.2-3.4-35.9-11.8-50-25.2c-10.7-10.1-18.7-22.1-23.9-35.8c-4.3-11.2-6.3-22.8-6.3-34.7c0.1-18.3,5-35.3,14.8-50.7
		C31,29.5,47.2,16.3,67.9,8.6c8-3,16.3-4.8,24.8-5.5c13-1.1,25.8,0.3,38.2,4.4c13.8,4.5,25.9,11.8,36.5,21.8c0.3,0.2,0.5,0.7,0.5,1
		c0,7.1,0,14.3,0,21.4C167.9,51.9,167.9,52,167.9,52.3z"/>
	
		<linearGradient id="SVGID_00000137097628320615970260000008829444021385719486_" gradientUnits="userSpaceOnUse" x1="34.1479" y1="99.3837" x2="167.4539" y2="99.3837">
		<stop  offset="5.778895e-02" style="stop-color:#3132B6"/>
		<stop  offset="1" style="stop-color:#8384D3"/>
	</linearGradient>
	<path style="fill:url(#SVGID_00000137097628320615970260000008829444021385719486_);" d="M49.1,91.9c-5,0-9.9,0-14.9,0
		c2-25.6,23.5-54.8,58.4-58.9c38.6-4.6,71.9,24.2,74.6,61.4c2.8,38.4-26.9,70.6-64.5,71.8c-37.6,1.2-65.6-27.8-68.7-59.3
		c5,0,9.9,0,14.9,0c2.8,16,10.8,28.5,24.7,37c10.6,6.5,22.1,8.7,34.4,7c25.3-3.7,44.1-25.3,44.5-50.6c0.4-25.9-18.3-48.1-43.5-52.2
		c-9.3-1.5-18.3-0.6-27.1,2.8c-8.8,3.4-16.1,8.8-22,16.1C54.1,74.3,50.5,82.6,49.1,91.9z"/>
	
		<linearGradient id="SVGID_00000023259030005313956600000002226120620264653500_" gradientUnits="userSpaceOnUse" x1="63.8815" y1="99.387" x2="137.3599" y2="99.387">
		<stop  offset="5.778895e-02" style="stop-color:#3132B6"/>
		<stop  offset="1" style="stop-color:#8384D3"/>
	</linearGradient>
	<path style="fill:url(#SVGID_00000023259030005313956600000002226120620264653500_);" d="M137.4,91.9c-1.2,0-2.4,0-3.6,0
		c-3.6,0-7.2,0-10.8,0c-0.7,0-1-0.2-1.3-0.9c-2.9-6.9-7.9-11.4-15.1-13.3C93.8,74.4,80.7,83.2,79,96.3c-1.6,12,6.5,23.1,18.4,25
		c10.2,1.7,20.3-3.9,24.2-13.4c0.2-0.4,0.3-0.7,0.5-1.1c5.1,0,10.2,0,15.3,0c-2.4,14.3-16.1,29.6-36.2,29.7
		c-20.4,0.1-37.1-16.5-37.2-37c-0.2-20.4,16.3-37.2,36.9-37.3C120.9,62.1,134.9,77.3,137.4,91.9z"/>
</g>
</svg>
